<svg xmlns="http://www.w3.org/2000/svg" xmlns:xlink="http://www.w3.org/1999/xlink" width="256" zoomAndPan="magnify" viewBox="0 0 192 192" height="256" preserveAspectRatio="xMidYMid meet" xmlns:v="https://vecta.io/nano"><path fill="#f1bc19" d="M158.887 7.477a2.32 2.32 0 0 0-.891.176c-.285.121-.539.289-.754.508s-.387.469-.508.754a2.32 2.32 0 0 0-.176.891 2.32 2.32 0 0 0 .176.891c.121.285.289.535.508.754s.469.387.754.504.582.18.891.18.605-.059.891-.18a2.28 2.28 0 0 0 .754-.504 2.28 2.28 0 0 0 .504-.754c.121-.285.18-.582.18-.891s-.059-.605-.18-.891-.285-.539-.504-.754-.469-.387-.754-.508a2.32 2.32 0 0 0-.891-.176zm0 0"/><path fill="#e6edb7" d="M96.043 9.805l-4.227.102-4.215.313-4.195.52-4.168.723-4.121.926-4.074 1.125-4.016 1.328-3.941 1.52-3.867 1.715-3.773 1.898-3.68 2.086-3.57 2.258-3.457 2.438-3.332 2.598-3.199 2.762-3.062 2.914-2.914 3.063-2.762 3.199-2.602 3.332-2.434 3.457-2.262 3.57-2.082 3.68-1.902 3.777-1.711 3.863-1.523 3.941-1.324 4.016L12.5 75l-.926 4.125-.723 4.164-.516 4.195-.312 4.215-.102 4.227.102 4.227.313 4.215.516 4.195.723 4.164.926 4.125 1.129 4.074 1.324 4.012 1.523 3.945 1.711 3.863 1.902 3.777 2.082 3.676 2.262 3.57 2.434 3.457 2.602 3.332 2.762 3.203 2.914 3.059 3.063 2.914 3.199 2.762 3.332 2.602 3.457 2.434 3.57 2.262 3.68 2.082 3.773 1.902 3.867 1.711 3.941 1.523 4.016 1.324 4.074 1.129 4.121.926 4.168.723 4.195.52 4.215.309 4.227.105 4.223-.105 4.219-.309 4.195-.52 4.164-.723 4.125-.926 4.07-1.129 4.016-1.324 3.945-1.523 3.863-1.711 3.773-1.902 3.68-2.082 3.57-2.262 3.457-2.434 3.332-2.602 3.199-2.762 3.063-2.914 2.914-3.059 2.762-3.203 2.602-3.332 2.434-3.457 2.262-3.57 2.082-3.676 1.902-3.777 1.711-3.863 1.523-3.945 1.324-4.012 1.129-4.074.926-4.125.723-4.164.516-4.195.313-4.215.102-4.227-.102-4.227-.312-4.215-.516-4.195-.723-4.164-.926-4.125-1.129-4.074-1.324-4.016-1.523-3.941-1.711-3.863-1.902-3.777-2.082-3.68-2.262-3.57-2.434-3.457-2.602-3.332-2.762-3.199-2.914-3.062-3.062-2.914-3.199-2.762-3.332-2.598-3.457-2.437-3.57-2.258-3.68-2.086-3.773-1.898L129 16.359l-3.945-1.52-4.016-1.328-4.07-1.125-4.125-.926-4.164-.723-4.195-.52-4.219-.312-4.223-.102zm0 0"/><path fill="#f1bc19" d="M172.852 5.148a9.18 9.18 0 0 0-1.816.18c-.598.121-1.18.297-1.746.531s-1.102.52-1.609.859-.98.727-1.41 1.156a9.32 9.32 0 0 0-1.16 1.41c-.34.512-.625 1.047-.859 1.613s-.41 1.145-.531 1.746a9.42 9.42 0 0 0-.176 1.816 9.48 9.48 0 0 0 .176 1.816c.121.598.297 1.18.531 1.746a9.36 9.36 0 0 0 .859 1.609 9.32 9.32 0 0 0 1.16 1.41c.43.434.902.816 1.41 1.156a9.24 9.24 0 0 0 1.609.863 9.17 9.17 0 0 0 1.746.527 9.18 9.18 0 0 0 1.816.18c.613 0 1.219-.059 1.816-.18s1.184-.293 1.746-.527a9.24 9.24 0 0 0 1.609-.863c.508-.34.98-.723 1.41-1.156a9.32 9.32 0 0 0 1.16-1.41 9.36 9.36 0 0 0 .859-1.609c.234-.566.41-1.148.531-1.746a9.48 9.48 0 0 0 .176-1.816 9.42 9.42 0 0 0-.176-1.816c-.121-.602-.297-1.184-.531-1.746s-.52-1.102-.859-1.613a9.32 9.32 0 0 0-1.16-1.41c-.43-.43-.902-.816-1.41-1.156s-1.043-.629-1.609-.859-1.145-.41-1.746-.531-1.203-.18-1.816-.18zm0 0"/><path fill="#88ae45" d="M182.16 30.754a4.43 4.43 0 0 0-.906.09 4.6 4.6 0 0 0-.875.262 4.57 4.57 0 0 0-.805.434c-.254.168-.488.359-.703.578s-.41.449-.578.703a4.57 4.57 0 0 0-.434.805 4.9 4.9 0 0 0-.262.875 4.43 4.43 0 0 0-.09.906 4.44 4.44 0 0 0 .09.91c.059.301.148.59.262.871s.262.551.434.805.359.492.578.707a4.54 4.54 0 0 0 .703.578 4.55 4.55 0 0 0 .805.43 4.61 4.61 0 0 0 .875.266 4.72 4.72 0 0 0 .906.09 4.73 4.73 0 0 0 .91-.09 4.61 4.61 0 0 0 .875-.266 4.69 4.69 0 0 0 .805-.43 4.54 4.54 0 0 0 .703-.578 4.39 4.39 0 0 0 .578-.707 4.19 4.19 0 0 0 .43-.805 4.49 4.49 0 0 0 .266-.871 4.44 4.44 0 0 0 .09-.91 4.43 4.43 0 0 0-.09-.906 4.61 4.61 0 0 0-.266-.875 4.31 4.31 0 0 0-.43-.805 4.54 4.54 0 0 0-.578-.703c-.215-.219-.449-.41-.703-.578a4.71 4.71 0 0 0-.805-.434 4.6 4.6 0 0 0-.875-.262 4.44 4.44 0 0 0-.91-.09zm0 0"/><path fill="#fbcd59" d="M168.195 151.785a4.72 4.72 0 0 0-.906.09 4.91 4.91 0 0 0-.875.266 4.82 4.82 0 0 0-.805.43c-.254.172-.488.363-.703.582s-.41.449-.582.703a4.82 4.82 0 0 0-.43.805c-.117.281-.203.574-.266.875s-.086.602-.086.906.027.609.086.91.148.59.266.871a4.67 4.67 0 0 0 .43.805c.172.254.363.492.582.707a4.54 4.54 0 0 0 .703.578 4.55 4.55 0 0 0 .805.43 4.61 4.61 0 0 0 .875.266 4.72 4.72 0 0 0 .906.09 4.73 4.73 0 0 0 .91-.09 4.49 4.49 0 0 0 .871-.266c.285-.117.551-.258.805-.43a4.57 4.57 0 0 0 1.285-1.285c.172-.254.313-.52.43-.805s.207-.574.266-.871a4.76 4.76 0 0 0 .09-.91 4.69 4.69 0 0 0-.09-.906c-.059-.301-.148-.594-.266-.875a4.55 4.55 0 0 0-.43-.805 4.54 4.54 0 0 0-.578-.703c-.215-.219-.453-.41-.707-.582a4.67 4.67 0 0 0-.805-.43c-.281-.117-.57-.203-.871-.266a4.73 4.73 0 0 0-.91-.09zm-153.621-34.91a9.48 9.48 0 0 0-1.816.176c-.598.121-1.18.297-1.746.531a9.36 9.36 0 0 0-1.609.859 9.32 9.32 0 0 0-1.41 1.16c-.434.43-.816.902-1.156 1.41a9.24 9.24 0 0 0-.863 1.609c-.23.563-.41 1.148-.527 1.746a9.18 9.18 0 0 0-.18 1.816 9.15 9.15 0 0 0 .18 1.816c.117.598.297 1.184.527 1.746a9.24 9.24 0 0 0 .863 1.609c.34.508.723.98 1.156 1.41a9.32 9.32 0 0 0 1.41 1.16 9.36 9.36 0 0 0 1.609.859c.566.234 1.148.41 1.746.531a9.48 9.48 0 0 0 1.816.176 9.42 9.42 0 0 0 1.816-.176 9.42 9.42 0 0 0 1.75-.531 9.51 9.51 0 0 0 1.609-.859 9.32 9.32 0 0 0 1.41-1.16c.43-.43.816-.902 1.156-1.41s.629-1.043.859-1.609a9.1 9.1 0 0 0 .531-1.746 9.15 9.15 0 0 0 .18-1.816 9.18 9.18 0 0 0-.18-1.816 9.1 9.1 0 0 0-.531-1.746c-.23-.566-.52-1.102-.859-1.609s-.727-.98-1.156-1.41a9.32 9.32 0 0 0-1.41-1.16 9.51 9.51 0 0 0-1.609-.859 9.42 9.42 0 0 0-1.75-.531 9.42 9.42 0 0 0-1.816-.176zm0 0"/><path fill="#88ae45" d="M37.852 177.391a4.69 4.69 0 0 0-.906.09c-.301.059-.594.148-.875.266a4.55 4.55 0 0 0-.805.43 4.76 4.76 0 0 0-.707.578c-.215.215-.406.453-.578.707a4.67 4.67 0 0 0-.43.805 4.49 4.49 0 0 0-.266.871 4.73 4.73 0 0 0-.09.91 4.72 4.72 0 0 0 .09.906 4.61 4.61 0 0 0 .266.875 4.82 4.82 0 0 0 .43.805c.172.254.363.488.578.703s.453.41.707.582a4.82 4.82 0 0 0 .805.43c.281.117.574.203.875.266s.602.086.906.086.609-.027.91-.086a4.87 4.87 0 0 0 .871-.266 4.82 4.82 0 0 0 .805-.43c.254-.172.488-.363.707-.582s.406-.449.578-.703a4.82 4.82 0 0 0 .43-.805 4.61 4.61 0 0 0 .266-.875 4.72 4.72 0 0 0 .09-.906 4.73 4.73 0 0 0-.09-.91 4.49 4.49 0 0 0-.266-.871 4.67 4.67 0 0 0-.43-.805c-.172-.254-.363-.492-.578-.707a4.76 4.76 0 0 0-.707-.578 4.55 4.55 0 0 0-.805-.43c-.281-.117-.574-.207-.871-.266a4.76 4.76 0 0 0-.91-.09zm0 0"/><path fill="#fff" d="M22.723 93.598c-.383 0-.762.035-1.137.113a5.84 5.84 0 0 0-1.09.328c-.352.148-.687.328-1.008.539s-.609.453-.879.723a5.82 5.82 0 0 0-.727.883c-.211.316-.391.652-.535 1.008s-.258.715-.332 1.09-.113.754-.113 1.137.039.758.113 1.133.184.738.332 1.094.324.688.535 1.004.453.613.727.883.563.512.879.723.656.391 1.008.539.715.258 1.09.332a5.84 5.84 0 0 0 1.137.109 5.84 5.84 0 0 0 1.137-.109c.371-.074.738-.187 1.09-.332s.688-.324 1.008-.539.609-.453.879-.723.512-.562.727-.883.391-.652.535-1.004.258-.719.332-1.094.113-.754.113-1.133-.039-.762-.113-1.137-.184-.738-.332-1.09-.324-.691-.535-1.008-.457-.613-.727-.883-.562-.512-.879-.723-.656-.391-1.008-.539a5.93 5.93 0 0 0-1.09-.328c-.375-.078-.754-.113-1.137-.113zm141.984-39.57c-.465 0-.91.09-1.34.266a3.46 3.46 0 0 0-1.129.758c-.328.328-.582.707-.758 1.133s-.266.875-.266 1.336a3.4 3.4 0 0 0 .266 1.336c.176.43.43.805.758 1.133a3.46 3.46 0 0 0 1.129.758c.43.176.875.266 1.34.266a3.5 3.5 0 0 0 1.336-.266 3.52 3.52 0 0 0 1.133-.758c.324-.328.578-.703.754-1.133a3.4 3.4 0 0 0 .266-1.336c0-.461-.086-.906-.266-1.336s-.43-.805-.754-1.133a3.52 3.52 0 0 0-1.133-.758 3.5 3.5 0 0 0-1.336-.266zm0 0"/><path fill="#fdfcef" d="M34.824 126.879v-70.91c0-5.305 3.496-9.621 7.797-9.621h106.84c4.297 0 7.797 4.316 7.797 9.621v70.914zm0 0"/><path fill="#472b29" d="M149.461 47.977c3.344 0 6.168 3.66 6.168 7.992v69.285l-119.172-.004V55.969c0-4.332 2.824-7.992 6.168-7.992h106.836m0-3.258H42.621c-5.184 0-9.426 5.063-9.426 11.25v72.539l125.691.004V55.969c0-6.187-4.242-11.25-9.426-11.25zm0 0"/><g fill="#c0e5e4"><path d="M46 57.52h100.086v60.516H46zm0 0"/><path d="M146.086 67.41v50.625H46V105.43"/></g><path d="M146.086 119.199H46a1.16 1.16 0 0 1-1.164-1.164V105.43a1.162 1.162 0 1 1 2.324 0v11.445h97.762V67.41a1.16 1.16 0 0 1 1.164-1.16c.641 0 1.164.52 1.164 1.16v50.625c0 .645-.523 1.164-1.164 1.164zm-58.473-11.355a1.16 1.16 0 0 1-.824-.34c-.453-.453-.453-1.191 0-1.645l9.875-9.875c.453-.453 1.191-.453 1.645 0a1.17 1.17 0 0 1 0 1.648l-9.875 9.871a1.15 1.15 0 0 1-.82.34zm0 0" fill="#472b29"/><path fill="#c0e5e4" d="M46 89.73V57.52h100.086"/><path fill="#472b29" d="M46 90.895a1.16 1.16 0 0 1-1.164-1.164V57.52c0-.641.52-1.164 1.164-1.164h100.086a1.17 1.17 0 0 1 1.164 1.164c0 .645-.523 1.164-1.164 1.164H47.16V89.73A1.16 1.16 0 0 1 46 90.895zm0 0"/><path fill="#e1e0d8" d="M38.668 140.848c-4.684 0-8.496-3.836-8.496-8.555v-4.48h131.742v4.48c0 4.715-3.812 8.555-8.496 8.555zm0 0"/><path fill="#472b29" d="M160.281 129.441v2.852c0 3.816-3.082 6.926-6.863 6.926H38.668c-3.789 0-6.867-3.109-6.867-6.926v-2.852h128.48m3.262-3.258h-135v6.109c0 5.602 4.555 10.184 10.125 10.184h114.75c5.566 0 10.125-4.582 10.125-10.184zM96.898 51.84h-3.277a.71.71 0 0 1-.707-.707v-.152a.71.71 0 0 1 .707-.707h3.277a.71.71 0 0 1 .707.707v.152a.71.71 0 0 1-.707.707zm0 0"/><path fill="#a2b3cb" d="M85.973 69.387L60.754 97.496l.27 7.738h8.359l.277-.309-1.406-3.949 3.496-.273-.727-2.812 3.496-.277-.727-2.812 4.852.113 15.953-17.785"/><path fill="#472b29" d="M69.641 105.234h-8.062c-.648 0-1.18-.512-1.203-1.16l-.262-7.461c-.012-.301.098-.594.297-.82l24.438-27.242c.43-.477 1.168-.516 1.645-.086s.52 1.164.09 1.645L62.461 97l.207 5.906h5.695l-.914-2.57c-.121-.344-.078-.723.121-1.023s.523-.5.883-.527l2.004-.156-.355-1.387a1.16 1.16 0 0 1 .184-.965 1.15 1.15 0 0 1 .852-.484l2.008-.16-.355-1.383c-.09-.352-.012-.727.215-1.016s.559-.457.938-.441l4.164.098 15.102-16.836c.434-.477 1.168-.516 1.648-.09s.52 1.164.086 1.648l-15.465 17.23c-.223.254-.547.375-.891.387l-3.16-.07.32 1.234a1.16 1.16 0 0 1-.184.965 1.15 1.15 0 0 1-.852.484l-2.008.16.359 1.383a1.17 1.17 0 0 1-1.039 1.453l-1.871.145.852 2.395a1.17 1.17 0 0 1-.227 1.168l-.273.301c-.215.246-.535.387-.863.387zm0 0"/><path fill="#ee3e54" d="M118.574 46.551c-6.437-8.73-18.738-10.586-27.465-4.148s-10.586 18.738-4.148 27.465 18.738 10.586 27.465 4.148 10.586-18.734 4.148-27.465zm-3.461 19.156l-20.645-18.52c5.438-3.555 12.664-3.273 17.598 1.152s5.992 11.578 3.047 17.367zm0 0"/><g fill="#472b29"><path d="M102.797 79.043c-6.402 0-12.719-2.93-16.801-8.465-3.305-4.48-4.668-9.98-3.84-15.48a20.7 20.7 0 0 1 8.238-13.664c9.254-6.82 22.328-4.848 29.148 4.402s4.848 22.324-4.402 29.145a20.72 20.72 0 0 1-12.344 4.063zm-.051-39.266a18.35 18.35 0 0 0-10.926 3.594c-3.961 2.922-6.551 7.215-7.285 12.086a18.31 18.31 0 0 0 3.391 13.699c6.035 8.184 17.602 9.93 25.785 3.895s9.93-17.602 3.895-25.785c-3.609-4.895-9.199-7.488-14.859-7.488zm12.367 27.133a1.2 1.2 0 0 1-.801-.309l-20.648-18.52a1.21 1.21 0 0 1-.395-.988 1.19 1.19 0 0 1 .539-.914c6.016-3.93 13.852-3.41 19.059 1.262s6.57 12.406 3.316 18.809c-.168.336-.484.57-.855.637-.066.016-.141.023-.215.023zM96.508 47.402l18.176 16.301c1.895-5.109.594-10.871-3.418-14.469s-9.891-4.273-14.758-1.832zm-35.172 55.676a.61.61 0 0 1-.402-.152c-.246-.219-.266-.602-.047-.848l17.059-19.012c.219-.246.602-.266.848-.047s.27.602.047.852l-17.055 19.008c-.121.133-.285.199-.449.199zm18.93-21.098a.61.61 0 0 1-.402-.152c-.246-.223-.27-.602-.047-.852l1.754-1.957a.61.61 0 0 1 .852-.047.61.61 0 0 1 .047.852l-1.758 1.957a.59.59 0 0 1-.445.199zm3.472-3.875a.6.6 0 0 1-.445-1l.25-.285c.223-.246.605-.27.852-.047a.61.61 0 0 1 .047.852l-.254.281a.6.6 0 0 1-.449.199zm0 0"/><path d="M115.926 56.012c-.027 0-.059 0-.09-.004-2.316-.168-4.223-1.027-6.18-2.785a11.12 11.12 0 0 1-3.707-7.738c-.164-2.988.852-5.863 2.852-8.094a11.23 11.23 0 0 1 15.832-.859c4.602 4.129 4.984 11.23.855 15.832-.574.645-1.227 1.219-1.922 1.707a1.202 1.202 0 0 1-1.379-1.969 8.83 8.83 0 0 0 1.516-1.344 8.82 8.82 0 0 0-.676-12.437 8.83 8.83 0 0 0-12.437.676 8.76 8.76 0 0 0-2.238 6.359c.129 2.348 1.16 4.508 2.914 6.078 1.578 1.414 2.953 2.047 4.75 2.18.66.047 1.16.625 1.113 1.285a1.21 1.21 0 0 1-1.203 1.113zm-84.149 81.347c-.059 0-.121-.016-.172-.051-.168-.098-.219-.305-.121-.469l6.316-10.566c.094-.168.305-.219.469-.121a.34.34 0 0 1 .117.469l-6.312 10.57c-.066.105-.18.168-.297.168zm2.637 1.535c-.062 0-.125-.016-.184-.051-.16-.102-.207-.312-.109-.469l7.969-12.691c.105-.16.316-.207.469-.109.164.102.211.313.109.469l-7.965 12.691c-.066.102-.176.16-.289.16zm2.805 1.254c-.062 0-.125-.016-.184-.051-.16-.102-.207-.312-.109-.469l7.969-12.691c.105-.16.316-.203.469-.109.164.102.211.313.109.469l-7.965 12.691a.34.34 0 0 1-.289.16zm5.523-2.09c-.062 0-.125-.016-.184-.051-.16-.102-.207-.312-.109-.469l6.672-10.625c.102-.16.316-.203.469-.109.16.102.207.313.109.469l-6.668 10.625a.34.34 0 0 1-.289.16zm5.789-2.801c-.062 0-.125-.016-.184-.051-.16-.102-.207-.312-.109-.469l4.699-7.488c.105-.16.316-.207.473-.109s.207.313.109.469l-4.699 7.488a.34.34 0 0 1-.289.16zm0 0"/><use xlink:href="#B"/><use xlink:href="#C"/><path d="M99.531 102.906H85.566c-.641 0-1.164-.52-1.164-1.164a1.16 1.16 0 0 1 1.164-1.16h13.965a1.162 1.162 0 1 1 0 2.324zm4.657 32.586H90.223a1.162 1.162 0 1 1 0-2.324h13.965a1.162 1.162 0 1 1 0 2.324zm2.046-27.648a1.16 1.16 0 0 1-.824-.34c-.453-.453-.453-1.191 0-1.645l9.875-9.875c.453-.453 1.191-.453 1.645 0a1.17 1.17 0 0 1 0 1.648l-9.875 9.871c-.227.227-.523.34-.82.34zm0 0"/><use xlink:href="#B" x="18.621"/><use xlink:href="#C" x="18.621"/><use xlink:href="#D"/><path d="M124.855 107.844a1.16 1.16 0 0 1-.824-.34c-.453-.453-.453-1.191 0-1.645l9.871-9.875a1.17 1.17 0 0 1 1.648 0 1.17 1.17 0 0 1 0 1.648l-9.875 9.871c-.227.227-.523.34-.82.34zm0 0"/><use xlink:href="#B" x="37.242"/><path d="M134.727 107.844a1.17 1.17 0 0 1-.824-.34l-9.871-9.871a1.17 1.17 0 0 1 0-1.648c.453-.453 1.191-.453 1.645 0l9.875 9.875c.453.453.453 1.191 0 1.645a1.16 1.16 0 0 1-.824.34zm0 0"/><use xlink:href="#D" x="18.621"/></g><defs ><path id="B" d="M92.551 109.891c-.645 0-1.164-.523-1.164-1.164V94.762a1.16 1.16 0 0 1 1.164-1.164c.641 0 1.164.52 1.164 1.164v13.965a1.17 1.17 0 0 1-1.164 1.164zm0 0"/><path id="C" d="M97.488 107.844a1.16 1.16 0 0 1-.824-.34l-9.875-9.871a1.17 1.17 0 0 1 0-1.648c.453-.453 1.191-.453 1.645 0l9.875 9.875c.453.453.453 1.191 0 1.645-.227.227-.523.34-.82.34zm0 0"/><path id="D" d="M118.152 102.906h-13.965c-.641 0-1.164-.52-1.164-1.164s.523-1.16 1.164-1.16h13.965a1.16 1.16 0 1 1 0 2.324zm0 0"/></defs></svg>